# xmcd
#
# Track frame offsets:
#   150
#   9900
#   23450
#   34304
#   47886
#   57117
#   65049
#   75527
#   86322
#   98246
#   108606
#   122142
#   136278
#   147352
#   159830
#   169511
#   182964
#   195466
#   207571
#   220021
#   232882
#
# Disc length: 3265 seconds
#
# Revision: 0
# Processed by: cddbd v1.4PL0 Copyright (c) Steve Scherf et al.
# Submitted via: uFREEDB 1.6.0
#
DISCID=170cbf15
DTITLE=Reeves, Jim - Country Classics, Vol. 2
DYEAR=1900
DGENRE=Country
TTITLE0=Dear Hearts And Gentle People
TTITLE1=Danny Boy
TTITLE2=Scarlet Ribbons (For Her Hair)
TTITLE3=Old Tige
TTITLE4=A Stranger's Just A Friend
TTITLE5=Teach Me How To Pray
TTITLE6=The Flowers The Sunset The Trees
TTITLE7=In The Garden
TTITLE8=An Evening Prayer
TTITLE9=The Farmer And The Lord
TTITLE10=My Cathedral
TTITLE11=Whispering Hope
TTITLE12=Take My Hand, Precious Lord
TTITLE13=He Will
TTITLE14=Padre Of Old San Antone
TTITLE15=It's No Secret What God Can Do
TTITLE16=Precious Memories
TTITLE17=May The Good Lord Bless You
TTITLE18=We Thank Thee
TTITLE19=This World Is Not My Home
TTITLE20=God Be With You
EXTD=
EXTT0=
EXTT1=
EXTT2=
EXTT3=
EXTT4=
EXTT5=
EXTT6=
EXTT7=
EXTT8=
EXTT9=
EXTT10=
EXTT11=
EXTT12=
EXTT13=
EXTT14=
EXTT15=
EXTT16=
EXTT17=
EXTT18=
EXTT19=
EXTT20=
PLAYORDER=
